# xmcd
#
# Track frame offsets:
#	150
#	10036
#	21561
#	33509
#	50431
#	62538
#	75345
#	90249
#	103909
#	115485
#	127210
#	138727
#	149665
#	164699
#
# Disc length: 2342 seconds
#
# Revision: 3
# Processed by: cddbd v1.4PL0 Copyright (c) Steve Scherf et al.
# Submitted via: EasyCDDAExtractor 6.0.0.1
#
DISCID=c809240e
DTITLE=Leon Redbone - No Regrets
DYEAR=1988
DGENRE=Other
TTITLE0=She Ain't Rose
TTITLE1=Wild and Wicked Ways
TTITLE2=She's My Gal
TTITLE3=Crazy Arms
TTITLE4=Long Gone Lonesome Blues
TTITLE5=Somewhere Down Below the Dixon Line
TTITLE6=Lazy Bones
TTITLE7=It's a Lonely World
TTITLE8=Another Story, Another Time, Another Place
TTITLE9=You Nearly Lose Your Mind
TTITLE10=Mr. and Mrs. Used To Be
TTITLE11=Some Sweet Day
TTITLE12=My Good Gal's Gone Blues
TTITLE13=Are You Lonesome Tonight
EXTD=YEAR: 1988 ID3G:  12
EXTT0=
EXTT1=
EXTT2=
EXTT3=
EXTT4=
EXTT5=
EXTT6=
EXTT7=
EXTT8=
EXTT9=
EXTT10=
EXTT11=
EXTT12=
EXTT13=
PLAYORDER=
